# xmcd
#
# Track frame offsets:
#	150
#	36498
#	60045
#	73981
#	88201
#	107362
#	120408
#	135333
#	156045
#	167594
#	186943
#	210428
#	231442
#	240037
#
# Disc length: 3441 seconds
#
# Revision: 1
# Processed by: cddbd v1.5.2PL0 Copyright (c) Steve Scherf et al.
# Submitted via: audiograbber 1.83.01
#
DISCID=ae0d6f0e
DTITLE=WAGNER TISO - SANFONA Ã SINFÔNICA-CD-04-VEREDAS
DYEAR=1900
DGENRE=MPB
TTITLE0=SUÍTE HUMBERTO TEIXEIRA
TTITLE1=BAOBAB
TTITLE2=ESPERANÇA PERDIDA
TTITLE3=SÓ LOUCO
TTITLE4=CINEMA ANTIGO
TTITLE5=SONETO DA SEPARAÇÃO
TTITLE6=VIVO SONHANDO
TTITLE7=FOLHA MORTA
TTITLE8=RUGAS
TTITLE9=QUERUBINS E SERAFINS
TTITLE10=FORÇA ESTRANHA
TTITLE11=RETRATO EM BRANCO E PRETO
TTITLE12=ALÉM DA FLORESTA(ADÁGIO A LA RAVEL)-FLORESTA DO AMAZONAS
TTITLE13=DONA
EXTD=
EXTT0=
EXTT1=
EXTT2=
EXTT3=
EXTT4=
EXTT5=
EXTT6=
EXTT7=
EXTT8=
EXTT9=
EXTT10=
EXTT11=
EXTT12=
EXTT13=
PLAYORDER=
